<svg width="111" height="74" viewBox="0 0 111 74" fill="none" xmlns="http://www.w3.org/2000/svg">
<path d="M32.7002 31.8449V49.7758H26.9976V27.2385L38.7773 27.2477C43.7723 27.2477 45.4789 30.7812 45.4789 33.9816V49.7758H39.7902V34.014C39.7902 32.6681 39.1011 31.8449 37.4176 31.8449H32.7002ZM71.4988 31.5767C69.5471 31.5767 68.0394 32.5757 67.4057 33.9354C67.0506 34.704 66.8645 35.5399 66.86 36.3866H75.6381C75.5318 33.9354 74.4218 31.5767 71.4988 31.5767ZM66.86 40.2716C66.86 43.1806 68.6776 45.3359 71.9197 45.3359C74.4356 45.3359 75.689 44.6421 77.1505 43.1806L80.6747 46.5522C78.4223 48.7768 76.0451 50.1273 71.8781 50.1273C66.4206 50.1273 61.1944 47.1535 61.1944 38.4725C61.1944 31.0494 65.75 26.8546 71.7439 26.8546C77.8257 26.8546 81.3407 31.7709 81.3407 38.2088V40.2577H66.86V40.2716ZM56.3706 49.7388C51.7272 49.7388 49.7477 46.506 49.7477 43.3055V21.1058H55.4456V27.2431H59.7376V31.8495H55.441V42.9494C55.441 44.2629 56.0654 44.9844 57.4251 44.9844H59.7376V49.7342L56.3706 49.7388ZM21.9194 24.1259H16.1752V18.6684H21.9194V24.1259ZM21.9333 50.0024C17.6321 49.5954 16.1706 46.9916 16.1706 43.9669V27.2477H21.924V50.0209L21.9333 50.0024ZM90.4056 49.5214C86.109 49.1052 84.6568 46.506 84.6568 43.4951V17.8961H90.4056V49.5307V49.5214ZM110.51 21.596C105.307 -3.80877 55.9729 -5.41825 24.1903 13.9325V16.0692C55.9405 -0.247568 100.983 -0.155068 105.085 23.2379C106.454 30.9847 102.097 39.0459 94.3137 43.6894V49.7527C103.679 46.321 113.299 35.198 110.51 21.596ZM52.7169 66.0417C30.7854 68.0675 7.91972 64.8809 4.72389 47.7408C3.16528 39.2911 7.02249 30.3279 12.1145 24.7688V21.7949C2.92479 29.8562 -2.0609 40.0634 0.811188 52.1207C4.47414 67.5911 24.0978 76.3507 54.0396 73.437C65.8934 72.2854 81.4008 68.4698 92.1815 62.5499V54.151C82.3952 59.9831 66.2032 64.7976 52.7169 66.0417ZM97.0516 19.5888C97.0516 19.3113 96.8805 19.2234 96.5151 19.2234H96.159V20.0097L96.5151 20.0189C96.8805 20.0189 97.0516 19.9033 97.0516 19.6304V19.5888ZM97.6066 21.5452H97.1857C97.1441 21.5452 97.1025 21.5267 97.0886 21.4897L96.5105 20.5045C96.4966 20.4814 96.4504 20.4583 96.4226 20.4583H96.1636V21.4388C96.1636 21.4943 96.122 21.5544 96.0573 21.5544H95.678C95.6271 21.5544 95.5809 21.4897 95.5809 21.4388V18.9737C95.5809 18.8396 95.6364 18.7656 95.7566 18.7517C95.9879 18.7286 96.2238 18.7239 96.4596 18.7239C97.1626 18.7239 97.5974 18.9367 97.5974 19.5934V19.6397C97.5974 20.0559 97.3846 20.2641 97.0701 20.3704L97.6714 21.3833C97.6714 21.411 97.6945 21.4388 97.6945 21.4665C97.7037 21.4989 97.676 21.5452 97.6066 21.5452ZM96.5984 18.2661C96.35 18.267 96.1042 18.3168 95.875 18.4127C95.6459 18.5086 95.4378 18.6487 95.2628 18.825C95.0878 19.0013 94.9493 19.2104 94.855 19.4402C94.7608 19.6701 94.7128 19.9162 94.7137 20.1646C94.7146 20.413 94.7645 20.6588 94.8604 20.888C94.9563 21.1171 95.0964 21.3251 95.2727 21.5002C95.4489 21.6752 95.658 21.8137 95.8878 21.9079C96.1177 22.0022 96.3638 22.0502 96.6122 22.0493C97.1112 22.0481 97.5895 21.8503 97.9436 21.4988C98.2977 21.1473 98.499 20.6705 98.5038 20.1716C98.5002 19.6673 98.2983 19.1848 97.9417 18.8282C97.5852 18.4716 97.1026 18.2697 96.5984 18.2661ZM96.5984 22.4609C95.9912 22.4615 95.4086 22.2209 94.9789 21.792C94.5491 21.3631 94.3073 20.781 94.3067 20.1739C94.3061 19.5667 94.5467 18.9841 94.9756 18.5544C95.4045 18.1246 95.9866 17.8828 96.5938 17.8822C97.1758 17.9192 97.7265 18.1765 98.1255 18.6018C98.5246 19.0271 98.7467 19.5884 98.7467 20.1716C98.7467 20.7548 98.5246 21.3161 98.1255 21.7413C97.7265 22.1666 97.1804 22.4239 96.5984 22.4609Z" fill="#C7C7C7"/>
</svg>
