<svg width="117" height="117" viewBox="0 0 117 117" fill="none" xmlns="http://www.w3.org/2000/svg">
<path fill-rule="evenodd" clip-rule="evenodd" d="M77.9763 21.9153C86.8788 21.2982 93.7604 26.4983 98.3377 32.4946C102.953 38.5405 106.133 46.4416 107.874 54.2085C109.615 61.9718 110.081 70.3211 108.636 77.4352C107.249 84.2667 103.549 92.083 95.1706 94.5877C87.2905 96.9436 80.3822 93.5157 75.454 89.37C70.5108 85.2117 66.3247 79.3813 63.0341 73.913C61.4389 71.2622 59.9887 68.5857 58.7064 66.0513C57.4236 68.5857 55.9734 71.2622 54.3782 73.913C51.0876 79.3813 46.9016 85.2117 41.9582 89.37C37.0302 93.5157 30.1219 96.9436 22.2416 94.5877C13.8634 92.083 10.1632 84.2667 8.77597 77.4352C7.33134 70.3211 7.79666 61.9718 9.53776 54.2085C11.2796 46.4416 14.4596 38.5405 19.0747 32.4946C23.6519 26.4983 30.5333 21.2982 39.4362 21.9153C47.7875 22.4942 53.8584 28.1592 57.6405 32.9545L58.7064 34.361L59.7722 32.9545C63.5539 28.1592 69.6247 22.4942 77.9763 21.9153ZM38.4266 36.4795C36.3801 36.3376 33.7088 37.384 30.6793 41.3528C27.6877 45.2719 25.2068 51.0546 23.783 57.4033C22.3586 63.7549 22.1536 69.9527 23.0831 74.53C23.885 78.4792 25.1699 79.893 25.9638 80.3862L26.2918 80.5543L26.423 80.6003C27.5553 80.9385 29.4114 80.847 32.5603 78.1983C35.6939 75.5622 38.8977 71.3236 41.8698 66.3852C43.1953 64.1828 44.4231 61.9257 45.528 59.7547L46.7932 57.1998L47.9306 54.7815L48.9305 52.5539L49.7831 50.5711L50.4788 48.8871C49.7172 47.3652 48.6256 45.3952 47.254 43.4433C44.1191 38.9822 40.9783 36.6564 38.4266 36.4795ZM78.9856 36.4795C76.4341 36.6564 73.2934 38.9822 70.1584 43.4433C68.7866 45.3952 67.6951 47.3652 66.9335 48.8871L68.0365 51.5285L68.964 53.6405C69.1307 54.0121 69.3034 54.3928 69.4818 54.7815L70.6192 57.1998L71.8844 59.7547C72.9893 61.9257 74.2172 64.1828 75.5426 66.3852C78.5145 71.3236 81.7185 75.5622 84.852 78.1983C87.7761 80.6578 89.5853 80.9124 90.7355 80.6654L90.9894 80.6003C91.6235 80.4105 93.3423 79.3905 94.3292 74.53C95.2587 69.9527 95.0538 63.7549 93.6295 57.4033C92.2056 51.0546 89.7247 45.2719 86.7328 41.3528C83.7035 37.384 81.0324 36.3376 78.9856 36.4795Z" fill="#C7C7C7"/>
</svg>
