<svg width="159" height="43" viewBox="0 0 159 43" fill="none" xmlns="http://www.w3.org/2000/svg">
<path d="M27.4619 2.43453C25.4871 1.07693 22.9102 0.396484 19.7311 0.396484H7.42336C6.44877 0.396484 5.91034 0.883893 5.80806 1.85777L0.808174 33.2427C0.756212 33.5509 0.833332 33.8328 1.03883 34.0891C1.24315 34.3459 1.50014 34.4735 1.80792 34.4735H7.65401C8.67938 34.4735 9.24297 33.9873 9.34643 33.0123L10.7308 24.5511C10.7814 24.1411 10.9617 23.8077 11.2695 23.5509C11.577 23.2946 11.9617 23.127 12.4232 23.0501C12.8848 22.9739 13.32 22.9356 13.731 22.9356C14.1408 22.9356 14.6278 22.9615 15.1928 23.0125C15.7563 23.0637 16.1156 23.0887 16.2696 23.0887C20.6796 23.0887 24.1411 21.846 26.6543 19.3582C29.1663 16.8713 30.4238 13.423 30.4238 9.01186C30.4238 5.98653 29.4358 3.79424 27.4619 2.43453ZM21.116 11.8583C20.8587 13.6534 20.1929 14.8323 19.116 15.3966C18.0389 15.9616 16.5005 16.2426 14.5008 16.2426L11.9622 16.3195L13.2702 8.08853C13.3722 7.52494 13.7054 7.24279 14.2699 7.24279H15.7319C17.7822 7.24279 19.2703 7.53834 20.1933 8.12709C21.116 8.71725 21.4237 9.96128 21.116 11.8583Z" fill="#C7C7C7"/>
<path d="M157.347 0.396484H151.656C151.09 0.396484 150.757 0.678633 150.656 1.24293L145.655 33.2429L145.578 33.3967C145.578 33.6544 145.681 33.8968 145.886 34.1277C146.09 34.3581 146.348 34.4735 146.655 34.4735H151.733C152.706 34.4735 153.244 33.9873 153.348 33.0123L158.348 1.54976V1.47335C158.348 0.755517 158.014 0.396484 157.347 0.396484Z" fill="#C7C7C7"/>
<path d="M88.5779 12.7807C88.5779 12.5248 88.4747 12.2808 88.2708 12.0504C88.0651 11.8197 87.834 11.7038 87.5784 11.7038H81.6552C81.0899 11.7038 80.6286 11.9615 80.2705 12.4729L72.1167 24.4736L68.7321 12.9349C68.4747 12.115 67.9111 11.7038 67.0399 11.7038H61.2698C61.0128 11.7038 60.7821 11.8195 60.5783 12.0504C60.3726 12.2808 60.2705 12.5251 60.2705 12.7807C60.2705 12.8841 60.7706 14.3962 61.7704 17.3192C62.7701 20.243 63.847 23.3969 65.0009 26.7818C66.1549 30.1659 66.7571 31.9617 66.8086 32.1656C62.6032 37.9097 60.5012 40.9867 60.5012 41.3963C60.5012 42.0636 60.8341 42.3965 61.5011 42.3965H67.4244C67.9882 42.3965 68.4495 42.1407 68.809 41.6277L88.4246 13.3191C88.5266 13.2173 88.5779 13.0386 88.5779 12.7807Z" fill="#C7C7C7"/>
<path d="M143.732 11.7038H137.886C137.167 11.7038 136.732 12.5502 136.579 14.2426C135.244 12.1921 132.809 11.1653 129.27 11.1653C125.578 11.1653 122.436 12.5502 119.847 15.3195C117.257 18.0888 115.963 21.3459 115.963 25.0891C115.963 28.1154 116.847 30.5254 118.616 32.3196C120.386 34.1157 122.757 35.012 125.732 35.012C127.219 35.012 128.732 34.7037 130.27 34.0889C131.809 33.4736 133.013 32.6535 133.886 31.6274C133.886 31.6789 133.834 31.9093 133.732 32.3193C133.629 32.7303 133.578 33.0386 133.578 33.2424C133.578 34.064 133.911 34.4731 134.579 34.4731H139.887C140.86 34.4731 141.425 33.9868 141.578 33.0118L144.732 12.9346C144.783 12.6269 144.706 12.3452 144.501 12.0884C144.296 11.8324 144.04 11.7038 143.732 11.7038ZM133.694 26.8582C132.386 28.1403 130.809 28.781 128.963 28.781C127.475 28.781 126.271 28.3714 125.348 27.5504C124.424 26.7312 123.963 25.6028 123.963 24.1658C123.963 22.2695 124.604 20.6657 125.886 19.3582C127.167 18.0504 128.758 17.3966 130.655 17.3966C132.09 17.3966 133.283 17.8198 134.232 18.6655C135.18 19.512 135.656 20.6789 135.656 22.1663C135.655 24.0122 135.001 25.5767 133.694 26.8582Z" fill="#C7C7C7"/>
<path d="M56.347 11.7038H50.5007C49.7817 11.7038 49.3467 12.5502 49.1927 14.2426C47.8081 12.1921 45.372 11.1653 41.8849 11.1653C38.1925 11.1653 35.051 12.5502 32.4616 15.3195C29.8715 18.0888 28.5771 21.3459 28.5771 25.0891C28.5771 28.1154 29.4619 30.5254 31.2312 32.3196C33.0005 34.1157 35.3717 35.012 38.3465 35.012C39.7817 35.012 41.2698 34.7037 42.808 34.0889C44.3464 33.4736 45.5772 32.6535 46.5003 31.6274C46.2946 32.2427 46.1926 32.7814 46.1926 33.2424C46.1926 34.064 46.5257 34.4731 47.1925 34.4731H52.5002C53.4738 34.4731 54.0386 33.9868 54.1926 33.0118L57.3463 12.9346C57.3969 12.6269 57.3202 12.3452 57.1157 12.0884C56.9104 11.8324 56.6541 11.7038 56.347 11.7038ZM46.3082 26.8962C45.0002 28.1541 43.3969 28.781 41.5007 28.781C40.0126 28.781 38.8203 28.3714 37.9235 27.5504C37.0256 26.7312 36.5772 25.6028 36.5772 24.1658C36.5772 22.2695 37.2179 20.6657 38.5005 19.3582C39.7817 18.0504 41.3716 17.3966 43.2697 17.3966C44.7049 17.3966 45.8972 17.8198 46.8469 18.6655C47.7949 19.512 48.2699 20.6789 48.2699 22.1663C48.2699 24.0637 47.616 25.6412 46.3082 26.8962Z" fill="#C7C7C7"/>
<path d="M114.847 2.43453C112.873 1.07693 110.296 0.396484 107.117 0.396484H94.8858C93.8594 0.396484 93.2951 0.883893 93.1933 1.85777L88.1935 33.2427C88.1415 33.5509 88.2184 33.8328 88.4241 34.0891C88.6277 34.3459 88.8854 34.4735 89.1932 34.4735H95.5006C96.1159 34.4735 96.526 34.1406 96.7315 33.4738L98.1163 24.5511C98.1671 24.1411 98.3468 23.8077 98.6548 23.5509C98.9626 23.2946 99.3467 23.127 99.8088 23.0501C100.27 22.9739 100.705 22.9356 101.117 22.9356C101.526 22.9356 102.013 22.9615 102.578 23.0125C103.142 23.0637 103.502 23.0887 103.654 23.0887C108.065 23.0887 111.526 21.846 114.039 19.3582C116.552 16.8713 117.809 13.423 117.809 9.01186C117.809 5.98653 116.821 3.79424 114.847 2.43453ZM106.963 15.0888C105.834 15.8579 104.142 16.2424 101.886 16.2424L99.4241 16.3192L100.732 8.08829C100.834 7.5247 101.167 7.24256 101.732 7.24256H103.116C104.244 7.24256 105.141 7.29381 105.809 7.39609C106.475 7.49931 107.117 7.81908 107.732 8.35751C108.348 8.89594 108.655 9.67843 108.655 10.7038C108.655 12.858 108.09 14.3191 106.963 15.0888Z" fill="#C7C7C7"/>
</svg>
